**ABCDEFGHIJKLMNOPQRSTUVWXYZabcdefghijklmnopqrstuvwxyz**************************
**PARASOLID !"#$%&'()*+,-./:;<=>?@[\]^_`{|}~0123456789**************************
**PART1;
MC=AMD64;
MC_MODEL=Intel64 Family 6 Model 158 Stepping 9, GenuineIntel;
MC_ID=unknown;
OS=Windows_NT;
OS_RELEASE=unknown;
FRU=Parasolid Version 34.1, build 254,  2-10-2023;
APPL=SOLIDWORKS 2023-2023138;
SITE=;
USER=unknown;
FORMAT=text;
GUISE=transmit;
KEY=Part1;
FILE=Part1.x_t;
DATE=Tue Oct 10 00:29:20 2023;
**PART2;
SCH=SCH_3401254_34101;
USFLD_SIZE=0;
**PART3;
**END_OF_HEADER*****************************************************************
T51 : TRANSMIT FILE created by modeller version 340125423 SCH_3401254_34101_1300
6231 0 12 36 CCCI7 lattice222 0 CCCI4 mesh1006 0 I8 polyline1008 0 CCCCCCCDI5 ow
ner1040 0 CCCI16 boundary_lattice222 0 CCCI13 boundary_mesh1006 0 I17 boundary_p
olyline1008 0 CCCA16 index_map_offset0 0 1 dA9 index_map82 0 A17 node_id_index_m
ap82 0 A20 schema_embedding_map82 0 A5 child12 0 A14 lowest_node_id0 0 1 dA16 me
sh_offset_data206 0 Z1 385 2 3 0 0 0 0 0 0 0 1e3 1e-8 0 4 0 1 0 1 1 5 0 6 7 8 0
 0 9 10 11 0 0 0 0 0 0 0 81 255 2 2 355 12 1 13 0 0 0 0 14 70 11 CI9 list_type0
 0 1 uI10 notransmit0 0 1 lCCCDCCDI12 finger_index0 0 1 dI12 finger_block1012 0
 CZ3 0 4 T1 0 0 10 20 1 15 15 13 255 5 236 0 1 0 16 0 0 17 0 50 255 6 232 0 16 1
8 0 0 +-.0051740034416044 .01515540149795235 -.0106249665822701 -166533453693773
5e-31 152655665885959e-30 1 -.970851565171196 .2396815353852995 -222044604925031
5e-31 137 255 7 194 0 1 19 0 20 +21 22 0 ?29 255 8 166 0 11 0 0 -.00081584878984
9666 -.01485250069821464 -.0085720005279222 19 9 CCCCCCI5 frame230 0 CA5 owner12
 0 Z9 5 0 1 17 0 23 0 V0 16 255 10 45 0 9801e-7 24 0 25 0 0 0 1 18 255 11 120 0
 26 0 0 8 .00143998892481992 1 17 255 26 0 27 26 26 11 28 29 30 28 -15 255 27 14
3 0 26 31 32 17 28 0 33 28 28 11 26 29 34 0 +16 29 115 0 .001438052337415376 28
 35 36 0 0 0 1 133 255 30 159 0 26 37 38 0 +38 -.000743724400209636 -.0148684740
96019 -.00857240720848362 -.000743724400209637 -.014868474096019 -.0085724072084
8362 0 1 137 37 158 0 1 34 30 39 +40 41 0 ?137 38 160 0 1 30 42 43 +44 45 0 ?31
 255 42 182 0 46 38 47 0 +-.0051740034416044 .01515540149795235 -.01062496658227
01 -1665334536937735e-31 152655665885959e-30 1 -.970851565171196 .23968153538529
95 -2220446049250315e-31 .0045 141 255 43 30 43 43 38 51 255 44 150 0 31 40 21 4
8 +-.0051740034416044 -.01407940653530046 -.0079761103233925 0 289120579329468e-
30 -1 .0045 0 1 289120579329468e-30 134 255 45 0 0 0 0 0 0 +49 50 136 255 49 2 7
 2 4 5 FFF1 51 52 53 135 255 50 2 0 45 255 14 51 1.74705591270826 .0005962968850
91116 3.317172762827715 .000596296885091116 4.88728882854599 .00216575616412604
 5.04848803984208 .00232688794505972 6.28318530717959 .001604128944837935 8.0048
7606401926 .000596296885091116 8.03024121988785 .000596296885091116 127 255 4 52
 3 2 2 3 128 255 4 53 0 .5 .7109375 1 14 255 31 141 54 ?55 56 27 5 44 +0 0 56 55
 23 124 255 40 121 0 55 57 44 58 +59 60 54 255 21 181 0 56 44 18 61 +-.005174003
4416044 .0001554014979524565 -.01062496658227218 1 0 0 .015 .0045 0 0 -1 141 48
 38 62 62 44 141 62 63 48 48 44 137 63 188 0 1 47 19 64 +44 65 0 ?133 47 187 0 6
6 42 63 0 +63 -.00954283548487475 -.0151579734445343 -.01535468541709255 -.00954
283548487475 -.0151579734445343 -.01535468541709255 0 1 133 19 193 0 67 63 7 0 +
7 -.00954283548487475 -.01510295272889725 -.0156947732987737 -.00954283548487475
 -.01510295272889725 -.0156947732987737 0 1 141 64 47 64 64 63 134 65 0 0 0 0 0
 0 +68 69 136 68 1 2 2 2 5 FFF1 70 71 72 135 69 2 0 45 4 70 10.7535364758754 .00
737857509370003 4.4703511686958 .00737857509370003 127 2 71 2 2 128 2 72 0 1 17
 67 0 73 67 67 0 66 36 19 0 +15 73 175 0 67 56 0 17 66 0 32 66 66 0 67 36 47 0 -
16 36 145 0 .001419809161044084 67 29 46 0 0 0 1 16 46 176 0 ?74 36 0 42 0 0 1 1
7 74 0 75 74 74 0 76 46 0 0 +15 75 228 0 74 16 0 17 76 0 77 76 76 0 74 46 0 0 -1
5 77 174 0 76 56 73 14 56 172 78 ?31 79 77 5 21 +0 0 79 31 23 81 1 78 359 80 56
 81 0 54 82 83 14 79 213 82 ?56 16 84 5 18 -0 0 16 56 23 13 23 3 0 0 0 0 0 0 9 8
5 14 85 44 86 ?0 87 88 5 89 +0 0 87 0 23 81 1 86 363 80 85 90 0 82 91 92 14 87 1
2 91 ?85 93 94 5 95 +0 0 93 85 23 15 88 46 0 96 85 97 124 89 53 0 85 95 57 98 +9
9 100 51 95 52 0 87 101 89 102 +0 .015 .111 0 0 -1 .0045 -1 0 0 124 57 85 0 103
 89 40 104 +105 106 141 98 107 108 108 89 126 255 99 TF3 3 6 18 2 6 5 9 FTF2 3 1
09 110 111 112 113 125 255 100 0 1 .673053559945427 1 0 1 .673053559945427 1 2 P
PBBPPBB????0 0 0 0 45 324 109 -.00471238898038469 .0195 .105 -.00471238898038469
 .0195 .1040890635418594 -.00482877887577158 .01950523007955905 .103173925446946
 -.00533297458036916 .0194874426174785 .101325856226329 -.00571673984417057 .019
47554049679625 .1003815563652566 -.00680557515093571 .01932292216927705 .0985367
486045536 -.00751606738522246 .01919848235927555 .0975994773564401 -.00928363325
664697 .0186394529504274 .0958744151589314 -.0103315547056702 .01822850700837055
 .0950589720978732 -.0127098950846864 .0168514459441939 .0936897475276479 -.0139
4363590959382 .01595601938732065 .0931533975701645 -.0163367206516896 .013610308
47718674 .0924007925041166 -.01743284009588695 .01224252269963314 .0921675023870
027 -.01929428791592965 .00907870901504379 .0919079214693864 -.0200223619877785
 .0073630351827154 .0918576423956003 -.0210006671152446 .003768580016034755 .091
8232711082358 -.0212554937139095 .001872053894455135 .0918235702096886 -.0212554
937127271 1387778780781446e-32 .0918235702104615 .00471238898038469 .0195 .105 .
00471238898038469 .0195 .103268884159276 .004480396489521245 .01950114901586075
 .101487642943528 .003542561279150845 .01946804968244935 .0980501348303798 .0028
2954691572146 .01942212526773605 .0963205834768634 .000883311033813837 .01914931
42832061 .0930230951718507 -.0003199770059008265 .01890206338007025 .09147030593
50415 -.003181823010641715 .01799688909871295 .0886772999145201 -.00473348945881
406 .01733610028407895 .0875081277399358 -.00799226188170941 .01544925004724955
 .0856320389845639 -.00947701978139141 .0143071316674438 .0850171665843442 -.012
15254880181638 .011684509093226 .0841757509575113 -.01322521630370686 .010274243
26897126 .0839657653122495 -.0149433972654038 .00735391634268377 .08372616655277
94 -.0155475532705128 .00586148791297737 .0836924922413907 -.01634262474991295 .
00294023399422583 .0836645618448959 -.01653334872377285 .00144848006344527 .0836
671134853595 -.01653334872212275 -693889390390723e-31 .0836671134860305 .0047123
8898038469 .0105 .105 .00471238898038469 .0105 .103253791825886 .004473259102363
02 .01050089720776126 .1015040332264984 .003572103083801325 .01046909253456288 .
0982010017857249 .002903107898228715 .01042335448196326 .0966583659873764 .00127
5089951585394 .0101951496862048 .0939000481863792 .000320112510346097 .009990319
52809085 .0927367701990964 -.00162141519058379 .00937623556500779 .0908419956294
119 -.00261421899032189 .00894168451478418 .0901428613540456 -.00440510170200423
 .00790475365441097 .0891118561286902 -.00520495374849549 .00728303649581498 .08
88106575673846 -.00650529807761212 .00600841154985029 .0884017539193522 -.007065
21531153207 .00527956245560711 .0883094503282747 -.00790621674997523 .0038501456
70321735 .0881921814454751 -.00822514283757699 .003085557653379295 .088185414778
7705 -.00864534240652707 .001541664912693525 .0881706604780399 -.008744506287236
09 .00077951415624631 .088176429788858 -.00874450628727287 -1387778780781446e-32
 .0881764297895384 -.00471238898038469 .0105 .105 -.00471238898038469 .0105 .104
0739712084696 -.00483591626293096 .01050497827145954 .1031903157299164 -.0053034
3277571753 .01048848546959202 .101476723181674 -.00564317886165873 .010476769711
01426 .1007193388757696 -.0064137962331688 .01036875757228504 .099413701619082 -
.00687597786897554 .01028673850728696 .098865941620495 -.00772322543658906 .0100
187994167315 .0980391108738232 -.00821228423717802 .00983409123906644 .097693705
7119736 -.00912273490498121 .00930694955136463 .0971695646717835 -.0096715698766
9674 .00893192421568264 .0969468885532049 -.01068946992748646 .00793421093382017
 .0966267954659575 -.0112728391037133 .00724784188626899 .0965111874030094 -.012
25710740049992 .00557493834268177 .0963739363621004 -.0126999515548381 .00458710
492310812 .0963505649329893 -.01330338477186334 .00237001093451166 .096329369741
3705 -.01346665127738924 .001203087987249136 .0963328865132604 -.013466651277877
22 693889390390723e-31 .0963328865139694 -.00471238898038469 .0195 .105 -.004712
38898038469 .0195 .1040890635418594 -.00482877887577158 .01950523007955905 .1031
73925446946 -.00533297458036916 .0194874426174785 .101325856226329 -.00571673984
417057 .01947554049679625 .1003815563652566 -.00680557515093571 .019322922169277
05 .0985367486045536 -.00751606738522246 .01919848235927555 .0975994773564401 -.
00928363325664697 .0186394529504274 .0958744151589314 -.0103315547056702 .018228
50700837055 .0950589720978732 -.0127098950846864 .0168514459441939 .093689747527
6479 -.01394363590959382 .01595601938732065 .0931533975701645 -.0163367206516896
 .01361030847718674 .0924007925041166 -.01743284009588695 .01224252269963314 .09
21675023870027 -.01929428791592965 .00907870901504379 .0919079214693864 -.020022
3619877785 .0073630351827154 .0918576423956003 -.0210006671152446 .0037685800160
34755 .0918232711082358 -.0212554937139095 .001872053894455135 .0918235702096886
 -.0212554937127271 1387778780781446e-32 .0918235702104615 .00471238898038469 .0
195 .105 .00471238898038469 .0195 .103268884159276 .004480396489521245 .01950114
901586075 .101487642943528 .003542561279150845 .01946804968244935 .0980501348303
798 .00282954691572146 .01942212526773605 .0963205834768634 .000883311033813837
 .0191493142832061 .0930230951718507 -.0003199770059008265 .01890206338007025 .0
914703059350415 -.003181823010641715 .01799688909871295 .0886772999145201 -.0047
3348945881406 .01733610028407895 .0875081277399358 -.00799226188170941 .01544925
004724955 .0856320389845639 -.00947701978139141 .0143071316674438 .0850171665843
442 -.01215254880181638 .011684509093226 .0841757509575113 -.01322521630370686 .
01027424326897126 .0839657653122495 -.0149433972654038 .00735391634268377 .08372
61665527794 -.0155475532705128 .00586148791297737 .0836924922413907 -.0163426247
4991295 .00294023399422583 .0836645618448959 -.01653334872377285 .00144848006344
527 .0836671134853595 -.01653334872212275 -693889390390723e-31 .0836671134860305
 127 5 110 2 2 2 2 2 127 9 111 4 2 2 2 2 2 2 2 4 128 5 112 -.5 0 .5 1 1.5 128 9
 113 .673053559945427 .71370523414834 .754314173048429 .79538351436685 .83671578
4718909 .877977907886489 .918929421528044 .959435736616647 1 137 107 58 0 1 114
 115 116 +89 117 0 ?141 108 118 98 98 89 137 118 61 0 1 115 119 120 +89 121 0 ?1
33 115 60 0 96 107 118 0 +118 -.0188944212174249 -277555756156289e-31 .087745341
848246 -.0188944212174249 -277555756156289e-31 .087745341848246 0 1 133 119 69 0
 122 118 123 0 +123 -1377727649040772e-33 .0195 .105 -2755455298081545e-34 .0195
 .105 0 1 141 120 115 120 120 118 134 121 0 0 0 0 0 0 +124 125 136 124 1 2 2 2 5
 FFF1 126 127 128 135 125 2 0 45 4 126 1 1 0 1 127 2 127 2 2 128 2 128 0 1 17 12
2 0 94 122 122 0 129 25 119 0 -137 123 70 0 1 119 130 131 +95 132 0 ?133 130 93
 0 24 123 133 0 +133 -.01889442121742485 .0002143289885956285 .0877555520799272
 -.01889442121742485 .0002143289885956285 .0877555520799272 0 1 141 131 119 131
 131 123 134 132 0 0 0 0 0 0 +134 135 136 134 1 2 2 2 5 FFF1 136 137 138 135 135
 2 0 45 4 136 7.85398163397448 .006 1.570796326794895 .006 127 2 137 2 2 128 2 1
38 0 1 17 24 0 139 24 24 0 96 10 130 0 +137 133 92 0 1 130 140 141 +57 142 0 ?13
3 140 91 0 143 133 144 0 +144 -.018894009928351 .000214396506390671 -.0022451549
64796495 -.018894009928351 .000214396506390671 -.002245154964796495 0 1 141 141
 130 141 141 133 134 142 0 0 0 0 0 0 +145 146 136 145 1 2 2 2 5 FFF1 147 148 149
 135 146 2 0 45 4 147 0 0 1 0 127 2 148 2 2 128 2 149 0 1 17 143 0 150 143 143 0
 151 35 140 0 -137 144 90 0 1 140 152 153 +57 154 0 ?133 152 128 0 151 144 155 0
 +155 -.018894009928351 -2095545958979985e-30 -.00225536841289907 -.018894009928
351 -2095545958979985e-30 -.00225536841289907 0 1 141 153 140 153 153 144 134 15
4 0 0 0 0 0 0 +156 157 136 156 1 2 2 2 5 FFF1 158 159 160 135 157 2 0 45 4 158 1
 1 0 1 127 2 159 2 2 128 2 160 0 1 17 151 0 161 151 151 0 143 35 152 0 +137 155
 127 0 1 152 34 162 +40 163 0 ?133 34 157 0 28 155 37 0 +37 -.000889782714313477
 -.01484235328922876 -.00857081836619338 -.000889782714313477 -.0148423532892287
6 -.00857081836619338 0 1 141 162 152 162 162 155 134 163 0 0 0 0 0 0 +164 165 1
36 164 1 2 2 2 5 FFF1 166 167 168 135 165 2 0 45 4 166 0 0 1 0 127 2 167 2 2 128
 2 168 0 1 15 161 113 0 151 55 33 16 35 80 0 9801e-7 151 169 29 0 0 0 1 16 169 6
 0 ?170 171 35 172 0 0 1 17 170 0 173 170 170 0 174 169 0 0 +16 171 9 0 ?175 25
 169 176 0 0 1 31 172 54 0 169 0 176 0 +0 -.00994558455157172 .0997712267843927
 0 -.748584881040482 .66303897010478 0 -.66303897010478 -.748584881040482 .0045
 31 176 55 0 171 172 114 0 +0 .015 .111 0 277555756156289e-30 -1 0 1 27755575615
6289e-30 .0045 133 114 57 0 129 176 107 0 +107 0 .0195 .105 0 .0195 .105 0 1 17
 129 0 97 129 129 0 122 25 114 0 +15 97 15 0 129 85 0 16 25 13 0 9801e-7 129 10
 171 0 0 0 1 17 175 0 177 175 175 0 178 171 0 0 +15 177 11 0 175 87 0 17 178 0 1
79 178 178 0 175 171 0 0 -15 179 10 0 178 93 173 14 93 2 180 ?87 103 179 5 101 +
0 0 103 87 23 15 173 7 0 170 93 0 81 1 180 369 80 93 181 0 182 183 184 14 103 76
 182 ?93 55 150 5 57 +0 0 55 93 23 54 101 51 0 93 0 95 0 +0 0 .111 -1 0 0 .015 .
0045 0 0 1 81 1 182 367 80 103 185 0 91 180 186 14 55 111 183 ?103 31 161 5 40 +
0 0 31 103 23 15 150 78 0 143 103 139 15 139 79 0 24 103 0 81 1 183 371 80 55 18
7 0 180 188 189 80 7 CCCCCDI12 legal_owners0 16 1 lCZ1 80 190 191 9000 1 1 1 1 1
 1 1 1 0 FFFFTFTFFFFFFFFF1 81 3 187 370 192 55 193 183 181 194 195 0 0 81 1 188
 373 80 16 194 0 183 0 196 82 255 1 189 -441908904 14 16 226 188 ?79 0 75 5 6 +0
 0 0 79 23 81 3 194 372 192 16 197 188 187 0 198 0 0 82 1 196 -429129384 80 3 19
2 199 200 9000 0 0 0 0 3 5 0 0 0 FFFFTFFFFFFFFFFF1 1 1 81 1 197 318 201 16 0 194
 0 202 203 82 6 198 0 178066011 31062582 0 0 0 80 1 201 0 204 8001 0 0 0 0 3 5 0
 0 0 FFFFTFTFFFFFFFFF2 81 1 202 319 201 79 0 205 197 206 207 83 255 3 203 .77647
0588235294 .756862745098039 .737254901960784 81 3 205 360 192 79 202 82 81 90 20
8 0 0 81 1 206 320 201 56 0 81 202 209 210 83 3 207 .776470588235294 .7568627450
98039 .737254901960784 81 3 81 358 192 56 206 78 211 205 212 0 0 81 1 209 321 20
1 31 0 211 206 193 213 83 3 210 .776470588235294 .756862745098039 .7372549019607
84 81 3 211 356 192 31 209 54 0 81 214 0 0 81 1 193 322 201 55 0 187 209 215 216
 83 3 213 .776470588235294 .756862745098039 .737254901960784 81 1 215 323 201 10
3 0 185 193 217 218 83 3 216 .776470588235294 .756862745098039 .737254901960784
 81 3 185 366 192 103 215 182 219 181 220 0 0 81 1 217 324 201 93 0 181 215 221
 222 83 3 218 .776470588235294 .756862745098039 .737254901960784 81 3 181 368 19
2 93 217 180 185 187 223 0 0 81 1 221 325 201 87 0 219 217 224 225 83 3 222 .776
470588235294 .756862745098039 .737254901960784 81 3 219 364 192 87 221 91 90 185
 226 0 0 81 1 224 326 201 85 0 90 221 0 227 83 3 225 .776470588235294 .756862745
098039 .737254901960784 81 3 90 362 192 85 224 86 205 219 228 0 0 83 3 227 .7764
70588235294 .756862745098039 .737254901960784 82 6 228 0 178066011 31062582 0 0
 0 81 1 91 365 80 87 219 0 86 182 229 82 6 226 0 178066011 31062582 0 0 0 82 1 2
29 -545652392 82 6 223 0 178066011 31062582 0 0 0 82 6 220 0 178066011 31062582
 0 0 0 81 1 54 357 80 31 211 0 0 78 230 82 6 214 0 178066011 31062582 0 0 0 82 1
 230 -465632936 82 6 212 0 178066011 31062582 0 0 0 81 1 82 361 80 79 205 0 78 8
6 231 82 6 208 0 178066011 31062582 0 0 0 82 1 231 -429981352 79 255 15 204 SDL/
TYSA_COLOUR79 18 200 DOWNSTREAM_FACE_ID82 6 195 0 178066011 31062582 0 0 0 79 14
 191 SWEntUnchanged82 1 186 -472972968 82 1 184 -546373288 17 174 0 84 174 174 0
 170 169 0 0 -15 84 215 0 174 79 0 15 33 114 0 28 55 0 17 96 0 88 96 96 0 24 10
 115 0 -15 94 14 0 122 87 177 141 116 114 116 116 107 134 117 0 0 0 0 0 0 +232 2
33 136 232 1 2 2 2 5 FFF1 234 235 236 135 233 2 0 45 4 234 0 .673053559945427 1
 .673053559945427 127 2 235 2 2 128 2 236 0 1 141 104 133 237 237 57 126 105 TF3
 3 6 80 2 6 5 40 FTF2 3 238 239 240 241 242 125 106 0 1 0 1 0 1 0 1 2 PPBBPPBB??
??0 0 0 0 45 1440 238 -.0212554937127271 -.000173349542383877 .0918153121628626
 -.0212337310743 -.002914219341593125 .0916285715440657 -.0207019801408654 -.005
43907327019416 .0914619416083791 -.01542877150127375 -.01885116477811775 .090471
6981021883 -.00124737147748789 -.0241987322350626 .0897123491571299 .01970459957
330855 -.01409675495546924 .0881536704968731 .0241603906813036 .0010611543362824
82 .0873369508471124 .01229892545552426 .0208032451892119 .0857683743017492 -.00
302382939658897 .0240808802961575 .0849611110621936 -.0219712346515629 .01030592
387026578 .0833911805590432 -.0240191693834675 -.00460482655459683 .082637786980
951 -.00830486282133502 -.02300837929645635 .0809897347705592 .00656444799926232
 -.02350243835118295 .0802540608514406 .0235041670862207 -.00654896686763844 .07
86479129339837 .02262049964906475 .00873225461578565 .0778741914035834 .00478707
980205308 .02376627195129885 .0762858237066165 -.01074700039375196 .021608690597
565 .0754746257591121 -.0239500967868347 .002953852049190405 .0739429868836864 -
.0207087618744973 -.01244980642384904 .0731238180990234 -.000905916747513365 -.0
241580991846078 .0715569708861717 .01417142090836348 -.0196209787059718 .0707419
591779445 .0241690773118776 .00125764934259436 .0691905705972619 .01885429113786
14 .015517887428078 .0684213366046448 -.003589034286091685 .02415960000116335 .0
667836409484999 -.01696607285650265 .01759089838294015 .0660463208916603 -.02380
107052565815 -.00553901452272028 .064429954828077 -.01586936112088725 -.01841554
143191615 .0636728067778145 .00723019356853607 -.02321008796819285 .062066330297
0246 .01971689607762485 -.01390591892608124 .0612653637618858 .02248100307165555
 .00875373979272498 .0597355208323031 .01242443395573068 .02079958034822415 .058
9226410877499 -.01082296133334316 .0216829790101057 .0573381426657062 -.02178200
087317575 .01043133535552066 .0565260117062012 -.02068033449018765 -.01247001155
687212 .0549894455119716 -.0090789226750645 -.02260887938153575 .054202754098221
7 .01454992061656972 -.0195503240524426 .0525803473218818 .0233114342089258 -.00
737905665404407 .0518349470887762 .01826283816366375 .01625526486655015 .0502153
080009292 .00531607932307671 .0237859974409042 .0494711046841145 -.0173328792820
239 .01699348674977565 .0478609766608215 -.02380840346369 .00342516847554091 .04
70880235381223 -.0162122963531611 -.0177628775244678 .0455788161909734 -.0022973
0449636555 -.02405437995958115 .04477962639295885 .01925323629732495 -.014932062
69126456 .04319893619850505 .02422414891894755 .000323899015544202 .042369536274
57955 .01280295422982796 .02056190110888735 .04081158918778775 -.002716809642139
395 .02424693200264125 .0399971713977418 -.0219949240347409 .0103463603001031 .0
3837876529286925 -.023985945111345 -.00466991280093857 .03761991794699875 -.0083
0519389764735 -.0229794795894778 .03600436161981405 .00657592353000499 -.0235236
9334696425 .0352675462049046 .0231404997104116 -.00688364305039292 .033668673657
4838 .0227663532590215 .00732105945153542 .032935445231331 .00725152817094447 .0
227822197433305 .031462281828073 -.00735705178629998 .022829611947366 .030684980
4312379 -.02373766974819235 .00618063644729814 .02911929057855535 -.022039291441
37075 -.01047721979174232 .0282606629635345 -.00244920468353744 -.02427315880364
725 .0266497747083886 .01382354625097962 -.02024303300991965 .02580279760139735
 .0242130557861603 .00124706571599342 .02417731822532 .01877128637844025 .015582
42326116395 .023401647088927 -.003595560611469975 .02412781915502065 .0217969993
5140025 -.01696838503370445 .01761677126861795 .0210610925745567 -.0238125585809
7105 -.00560652492949259 .01941227121752805 -.0158663197230146 -.018376199529889
25 .01866041473056625 .00708562192342613 -.0232183752068046 .0170883650174835 .0
197139807580395 -.01397397844987826 .0162824359306438 .02248600582060965 .008826
80742322794 .01471813909774806 .01237006578587756 .0207977543704359 .01390630833
13783 -.0107396156572515 .02168223025346465 .0123564292512467 -.0217567382264071
5 .01054758664895458 .01154620077185098 -.02071078729625155 -.0125078243797188 .
0099744646424214 -.0089499966551379 -.0226325463508851 .0091816086121119 .014548
86676524388 -.01950838754396835 .00759290682502698 .0233172496851139 -.007424605
17955102 .00685124162230886 .01854392473059155 .01496231603603208 .0052922365971
9947 .00807862076203737 .02217483225953425 .00463055262499222 -.0123389793884078
 .0201238756946357 .00323469599244239 -.02134527046649995 .01109877133334792 .00
2582143445224455 -.02125582620738505 -.0001732410819342555 .001814176367659465 -
.01653334872212265 .000602007519575135 .0836957919969917 -.0166089498828493 -.00
152102405818939 .0835114456012524 -.0162854743454513 -.00351895357603659 .083340
155149918 -.0126392259947643 -.01409416212489556 .0823669673931261 -.00182035002
6972985 -.01877116315859475 .0815975981990506 .0148433290971275 -.01164386165533
982 .0800304102252081 .01882059796859155 992889162999833e-20 .0792097455025186 .
01028529216346672 .015726326289641 .0776573893893507 -.00150496013091862 .018829
8095808328 .0768461995983781 -.0167373882459782 .0087727957913889 .0752678274535
411 -.018829749973467 -.00277048221457494 .0745102415705118 -.00726016348741349
 -.01757883731557625 .0728791325704918 .00427787492548353 -.0185046939756138 .07
21393210043811 .0180591701647879 -.00590300345750204 .0705245141476305 .01788204
115827105 .00602613027724287 .0697469706073816 .00455451099030091 .0182922333398
8275 .0681748336446052 -.00759684416816663 .01717883786821885 .0673596576542908
 -.0185293196708067 .003121564031833425 .0658197587725441 -.01652119116603365 -.
00898113812538033 .0649966115201272 -.001553767047144325 -.01873303341467275 .06
34460234473278 .0103292748925496 -.01575371289156705 .0626270032720695 .01884469
77299021 .000147112775805893 .0610672688761738 .01518227185874165 .0114291391036
8252 .0602939141290671 -.00193768179039067 .01889176771867805 .0586729308857137
 -.0125732991101849 .01427397776806464 .0579315980659606 -.0187059924427801 -.00
3490347143081955 .0563065139694879 -.0129595913326495 -.01378264068996604 .05554
55266170661 .00479956500411513 -.0182828380420327 .0539553980009858 .01484175661
908836 -.01150491648776416 .0531504031952954 .017789147805324 .00603633328321768
 .0516123085079152 .010361532485945 .01575263196931405 .0507953328856394 -.00764
366672496864 .0172230127053139 .0492272859828625 -.0165695427489706 .00887586211
354553 .0484110315982536 -.0165162911614869 -.00898926846904744 .046866189417562
3 -.00782145142649433 -.0172719442914257 .0460754444798781 .01061369705332214 -.
0156974171032504 .044469532643502 .0178660498246674 -.00655697687058428 .0437202
195006647 .0147662482365371 .0120173361728255 .04209184510869495 .00493544020718
083 .0183140855679917 .04134373708149735 -.01286564635377636 .0138095616971094 .
0397499894242271 -.0183912552338448 .003499135316386795 .03897288566864905 -.013
2222688700782 -.0132584495593047 .03745623698040485 -.002613816938888595 -.01862
36074254625 .03665823401266675 .01444858857822846 -.01227713137056804 .035081204
3161075 .01884630662158945 -.000599182928309966 .03425458099467225 .010666826530
15572 .0155536588085524 .0326887673404759 -.001294484299782348 .0189433472160598
 .0318698049807048 -.01672053061597265 .00881033458336589 .0302678661383074 -.01
881405358186565 -.00278786511686712 .0295051634948073 -.0072511567766094 -.01759
077224130025 .02788089904737765 .004319527734273435 -.0185110752724156 .02714007
33789884 .0177327593283979 -.00616108309513411 .0255575335442399 .01795664175705
26 .0048981130452119 .0248183013204584 .00642714155886704 .01746453742594125 .02
33422657704612 -.00491931712231601 .01800852254751485 .02256952330269665 -.01825
36962353487 .00562456238636052 .02099582566446115 -.0175020916741743 -.007376603
79073278 .0201439421852565 -.002743970707846065 -.0187911641793965 .018529306406
2994 .01006513931456526 -.01620454809923135 .01767522828224035 .0188514743951129
 .0001167825049496092 .01606636362201665 .0151429773246502 .01145607716260826 .0
1528684639682565 -.001967293010310975 .01889333734992705 .01367355834111154 -.01
259883215120342 .01426870440304478 .01293351390699452 -.0186929812219765 -.00351
6809022866205 .01130166383602726 -.0129823846637472 -.01373036874551454 .0105455
915614636 .00471335947156269 -.0183055645627511 .00896507488408728 .014856241968
07446 -.0115299901077901 .00815525388651789 .0177768294779733 .0060651280083034
 .00660712576095253 .01034885488699214 .01573611177660605 .00579139824709601 -.0
0760870730796073 .01723620002023175 .004233159406075075 -.0165600363304853 .0089
3496202907261 .00341905394834375 -.01652734921289235 -.00898684413560505 .001863
480243101605 -.00775426617427755 -.0172829686203582 .001066752566812842 .0106469
7955725722 -.01567638356760265 -.000530495397330249 .01787854424987 -.0065582567
2870664 -.00127640921270886 .01493147391306162 .01097043424388496 -.002819242150
39055 .00703389412402058 .0169679132439031 -.00349489496021068 -.008880941749700
12 .016067880810086 -.00487808645308784 -.0162198137902036 .00937389085538401 -.
0055427540638256 -.01653219364931695 .000602034094715598 -.00630448629725246 -.0
0874450628727284 .0001733495423838355 .0881846878371369 -.00876632517478219 -.00
0931879035832739 .0880039592565183 -.00857164105789592 -.002016433177744055 .087
8252653859759 -.00657801389589599 -.00751750588341839 .0868802697009246 -.000817
222943792642 -.00994815552530236 .0860943478964511 .00796671577419537 -.00601450
980408235 .0845131630040468 .00992511153276091 .0002059671680724305 .08368595048
85601 .00532195560717735 .00836733144390186 .0821603448231805 -.0009432272850456
36 .00995317543027841 .0813427098820104 -.00894137786497385 .004476572522644075
 .0797504015087708 -.00989896647344808 -.00166225319959971 .0789858846111365 -.0
0371357755405415 -.00932284923583073 .0773827202778654 .00240779337612773 -.0097
6020398100996 .0766361014927609 .00961264588609787 -.00294535867387893 .07500702
57149164 .00936589113009004 .00336846980526898 .0742231539703694 .00228047632850
7065 .00968281931656745 .0726777767404148 -.004154154597232525 .0090316958562496
3 .0718560676490615 -.00983329541528844 .00146943843866218 .070302545904596 -.00
861681023340163 -.00491257279833646 .0694728150849452 -.000694531358361942 -.009
89529542885421 .0679490400601132 .00558912513969258 -.00825628295515932 .0671234
394901662 .00996828461192861 .000263161296106292 .0655499284574303 .007883671710
71345 .00618872209717928 .0647697585474473 -.001148357368154386 .009954667604125
46 .0631763420798577 -.00676524508142443 .00745676063871387 .0624284092033855 -.
00986251881029051 -.00203090873725334 .0607889535993262 -.00668713294869242 -.00
740625023817626 .0600216128805909 .002655169473756025 -.00961482709994786 .05845
84355649018 .00794386096618997 -.00597263877894835 .057646823325989 .00935176173
530883 .003368049763018095 .0560951239664266 .00529577911639987 .008417666767298
63 .0552713690553171 -.0041482219848724 .00903676468578511 .0537304520695305 -.0
0883772887071864 .00456777752273828 .0529074257377121 -.00864941492431754 -.0049
1797554892283 .0513489264380633 -.00394035508822959 -.00919133298972696 .0505514
743694809 .00570512417448128 -.00821150753742528 .0489727719644567 .009506470397
96682 -.0033314248888844 .0482170255716407 .00769409857266919 .00650364381901585
 .0465742456236499 .002407130143549615 .0097100029262227 .0458196792410619 -.006
88151467653257 .00720040591370121 .0442529363598196 -.00975939168857363 .0017074
96323012845 .04346896804252185 -.00686595452570559 -.00714079601187935 .04194013
910688225 -.00120762679636931 -.00986203268522982 .0411441308249096 .00773872226
805541 -.00636576481288795 .03957293694326345 .00997812067730626 -.0001699410656
16465 .0387509692966569 .00549168491500572 .00833128838513318 .03717226519678515
 -.000884658415965647 .00997530762395789 .03634574132376445 -.00888162287429194
 .00453676717758428 .0347709659658234 -.00993548471793106 -.001621724938851245 .
0340019280159187 -.003663061962676705 -.00937837670723173 .03236329732911735 .00
247547127016802 -.009714676742692 .03161584128161645 .0093990398317092 -.0031317
44346935075 .030060229189884 .00945587269098949 .00273966717686171 .029311018031
7509 .003240731628505275 .00929082487698826 .0278304370745757 -.0027450960887409
15 .00948973725844111 .0270651585781248 -.00971322449474863 .002796044294448845
 .0254781857323207 -.00919675632754347 -.004045884194602255 .02463735138542085 -
.001279809053653128 -.00996041142088173 .02301673895499675 .00548036621241051 -.
00843661404504638 .02215083079340405 .00994646828890795 .0001879968874826215 .02
056937115642155 .00792499976792217 .00618075359058708 .01978353717881035 -.00122
7020654899058 .00997659616954153 .01815598964251235 -.00679581145816736 .0073887
1212957815 .01740910583989945 -.0098390209380401 -.001979791201617085 .015805239
26193255 -.00676377759812744 -.00736738824402254 .01504223217911925 .00267343889
9068945 -.00963823755332161 .01344776805682542 .00795760473478144 -.005922094303
69327 .01263149903181212 .00933984110826418 .003319657741556745 .011110032584800
08 .00535408861998322 .00840825394469033 .01028790230865552 -.004194696184268445
 .00904391771692329 .0087158793287966 -.00882842504386039 .00453560647764203 .00
789535442587733 -.00866080471736005 -.00485291476767651 .00636643754179793 -.003
96910481177192 -.00920690126706057 .00556335369292996 .00578736238186794 -.00818
898722139204 .00395199821824324 .00949702576267893 -.00326627101676832 .00319906
163012969 .00780612324253208 .00589105755504861 .0016828984519075 .0035367599923
96915 .00902628652401648 .000984218592952417 -.00480438622785519 .00841976793638
478 -.0003780970300801765 -.00865278923726112 .00480519169529184 -.0010567362317
2066 -.00874417379261462 .0001732410819300785 -.001814176367659875 -.01346665127
787724 -.00060200751957519 .0963042080030078 -.01339098269024434 -.0023249798801
78315 .0961212716781777 -.0129881468533224 -.00393655287190163 .095947051844437
 -.00936755940234743 -.01227450853664056 .0949850004099868 -.000244244394307553
 -.01537572460177015 .0942090988544731 .01282798625037642 -.00846740310421176 .0
926364232757691 .01526490424547295 .001257192612724914 .0918131558331538 .007335
5888992349 .01344425034347276 .090271329735579 -.00246209655070186 .015204246145
5466 .0894576213458259 -.01417522427057266 .00600970060157745 .0878737546142729
 -.0150883858833914 -.00349659753960731 .0871134300214613 -.00475827688803298 -.
01475239121672516 .0854933224780473 .00469436644990652 -.01475794835657912 .0847
508413398204 .0150576428075307 -.003591322084015325 .0831304245012696 .014104349
62088376 .00607459414381881 .0823503747665712 .002513045140259255 .0151568579279
7655 .0807887668024261 -.00730431082283191 .01346154858559576 .0799710357538266
 -.0152540725313024 .001301726456019162 .0784257740157944 -.01280438094186526 -.
00838124109680518 .0776000216638976 -466810587309817e-19 -.01532036119878925 .07
60599874989008 .00943127115549243 -.0121235487695641 .0752383953960131 .01529266
419391815 .00137369786289474 .0736732301785465 .01155569098989016 .0102774704215
6052 .072897181023082 -.002799709863912575 .01522249988662505 .0712870521425867
 -.0111580188277135 .01077368125370404 .0705431320290852 -.01495759689319722 -.0
04079576117006365 .0689123944579153 -.00959690273693015 -.0120391509801547 .0681
488930413677 .00508579803817699 -.01454207702607978 .0665693678609125 .012819000
42475442 -.00837364121726545 .0657617838925514 .01404361700161242 .0060854562725
254 .0642183362908425 .00735868058618555 .0134646151462372 .063398677257399 -.00
732751659324692 .0134967309905484 .0618413087524028 -.01405018699489584 .0061232
507647134 .0610224058456596 -.01281345825304626 -.00839871863674752 .05947218253
24726 -.0051978263367998 -.0145282680798937 .0586787839877962 .00964134773772888
 -.01206441448656052 .057083586642865 .0149518547822252 -.0041535046723442 .0563
317531597808 .01119068849979582 .0107415725127405 .0546977085158554 .00278776925
9473975 .0151819147991352 .0539470468436506 -.01134874760480794 .010384330966367
48 .0523639235964419 -.0151765399184188 .001633529482194435 .0515841059120226 -.
00985598200878848 -.0116452239770699 .0500627183174233 -.000891114353817998 -.01
529280521934845 .0492655232052017 .01254336998712266 -.00902069613358446 .047690
6688256611 .0153559629746075 .000753140878266156 .0468659245765642 .007627812614
73485 .0133395306854397 .045295087044097 -.002306983758337045 .01527889241053935
 .0444731077408302 -.014156016293046 .00607279289432148 .04288186512035695 -.015
10737624741045 -.00350377262290836 .04211668246813885 -.00471709908371465 -.0147
6708405542362 .0404867599015251 .00473186706589959 -.01472729481724068 .03974331
41075041 .01480678021372288 -.00385430430219389 .038171369303155 .01426558419290
514 .00516261358316525 .0374281619426235 .00406511824063599 .0146085071943975 .0
359504531321875 -.00518283075270435 .01431082665834702 .03518061570663865 -.0151
971980076149 .00335211835532616 .0336016506464451 -.01373395609479866 -.00714650
019561914 .0327540721636842 -.000985043029285783 -.0154424060451251 .03113720725
71007 .00923877314882484 -.01247509895573466 .03027840011254635 .015308049679955
35 .001318280098526448 .028680325759739 .0115533088217122 .01030709968914276 .02
789833787091175 -.00285528825605804 .01521107797463515 .02627943065280105 -.0111
6536434066836 .01073677899520866 .02553668450747595 -.01495859829703466 -.004069
50710830066 .023915846643419 -.0096477126574514 -.01201321902839724 .02315705534
822195 .00504570135098892 -.01455104819737514 .0215710581902216 .012815343524718
42 -.00836608264583753 .0207586810759591 .01404901745092844 .00608133715653718 .
01922104592157465 .00737529951881167 .01346989653854866 .0184028123929378 -.0073
2560453350228 .01348994795012772 .0168391491739682 -.01402512693975434 .00614823
109746813 .01602250124939855 -.0128442428007473 -.00837389501173416 .01447742194
11037 -.00516483529257543 -.01455647899758748 .01367820973824324 .00968924958979
776 -.01202099119775772 .01207540044058626 .01493573119792282 -.0041326194675267
75 .01132671246514742 .011418574060062 .00988293934711946 .00979437719949753 .00
458148663036387 .01423320553962272 .00910966617815532 -.00826242386651305 .01247
57628209594 .00773468541545005 -.01378119128222586 .00653342624338865 .007062035
22267902 -.01346780635068276 -.000602034094719761 .00630448629725205 -.021255493
7127271 -.000173349542383877 .0918153121628626 -.0212337310743 -.002914219341593
125 .0916285715440657 -.0207019801408654 -.00543907327019416 .0914619416083791 -
.01542877150127375 -.01885116477811775 .0904716981021883 -.00124737147748789 -.0
241987322350626 .0897123491571299 .01970459957330855 -.01409675495546924 .088153
6704968731 .0241603906813036 .001061154336282482 .0873369508471124 .012298925455
52426 .0208032451892119 .0857683743017492 -.00302382939658897 .0240808802961575
 .0849611110621936 -.0219712346515629 .01030592387026578 .0833911805590432 -.024
0191693834675 -.00460482655459683 .082637786980951 -.00830486282133502 -.0230083
7929645635 .0809897347705592 .00656444799926232 -.02350243835118295 .08025406085
14406 .0235041670862207 -.00654896686763844 .0786479129339837 .02262049964906475
 .00873225461578565 .0778741914035834 .00478707980205308 .02376627195129885 .076
2858237066165 -.01074700039375196 .021608690597565 .0754746257591121 -.023950096
7868347 .002953852049190405 .0739429868836864 -.0207087618744973 -.0124498064238
4904 .0731238180990234 -.000905916747513365 -.0241580991846078 .0715569708861717
 .01417142090836348 -.0196209787059718 .0707419591779445 .0241690773118776 .0012
5764934259436 .0691905705972619 .0188542911378614 .015517887428078 .068421336604
6448 -.003589034286091685 .02415960000116335 .0667836409484999 -.016966072856502
65 .01759089838294015 .0660463208916603 -.02380107052565815 -.00553901452272028
 .064429954828077 -.01586936112088725 -.01841554143191615 .0636728067778145 .007
23019356853607 -.02321008796819285 .0620663302970246 .01971689607762485 -.013905
91892608124 .0612653637618858 .02248100307165555 .00875373979272498 .05973552083
23031 .01242443395573068 .02079958034822415 .0589226410877499 -.0108229613333431
6 .0216829790101057 .0573381426657062 -.02178200087317575 .01043133535552066 .05
65260117062012 -.02068033449018765 -.01247001155687212 .0549894455119716 -.00907
89226750645 -.02260887938153575 .0542027540982217 .01454992061656972 -.019550324
0524426 .0525803473218818 .0233114342089258 -.00737905665404407 .051834947088776
2 .01826283816366375 .01625526486655015 .0502153080009292 .00531607932307671 .02
37859974409042 .0494711046841145 -.0173328792820239 .01699348674977565 .04786097
66608215 -.02380840346369 .00342516847554091 .0470880235381223 -.016212296353161
1 -.0177628775244678 .0455788161909734 -.00229730449636555 -.02405437995958115 .
04477962639295885 .01925323629732495 -.01493206269126456 .04319893619850505 .024
22414891894755 .000323899015544202 .04236953627457955 .01280295422982796 .020561
90110888735 .04081158918778775 -.002716809642139395 .02424693200264125 .03999717
13977418 -.0219949240347409 .0103463603001031 .03837876529286925 -.0239859451113
45 -.00466991280093857 .03761991794699875 -.00830519389764735 -.0229794795894778
 .03600436161981405 .00657592353000499 -.02352369334696425 .0352675462049046 .02
31404997104116 -.00688364305039292 .0336686736574838 .0227663532590215 .00732105
945153542 .032935445231331 .00725152817094447 .0227822197433305 .031462281828073
 -.00735705178629998 .022829611947366 .0306849804312379 -.02373766974819235 .006
18063644729814 .02911929057855535 -.02203929144137075 -.01047721979174232 .02826
06629635345 -.00244920468353744 -.02427315880364725 .0266497747083886 .013823546
25097962 -.02024303300991965 .02580279760139735 .0242130557861603 .0012470657159
9342 .02417731822532 .01877128637844025 .01558242326116395 .023401647088927 -.00
3595560611469975 .02412781915502065 .02179699935140025 -.01696838503370445 .0176
1677126861795 .0210610925745567 -.02381255858097105 -.00560652492949259 .0194122
7121752805 -.0158663197230146 -.01837619952988925 .01866041473056625 .0070856219
2342613 -.0232183752068046 .0170883650174835 .0197139807580395 -.013973978449878
26 .0162824359306438 .02248600582060965 .00882680742322794 .01471813909774806 .0
1237006578587756 .0207977543704359 .0139063083313783 -.0107396156572515 .0216822
3025346465 .0123564292512467 -.02175673822640715 .01054758664895458 .01154620077
185098 -.02071078729625155 -.0125078243797188 .0099744646424214 -.00894999665513
79 -.0226325463508851 .0091816086121119 .01454886676524388 -.01950838754396835 .
00759290682502698 .0233172496851139 -.00742460517955102 .00685124162230886 .0185
4392473059155 .01496231603603208 .00529223659719947 .00807862076203737 .02217483
225953425 .00463055262499222 -.0123389793884078 .0201238756946357 .0032346959924
4239 -.02134527046649995 .01109877133334792 .002582143445224455 -.02125582620738
505 -.0001732410819342555 .001814176367659465 -.01653334872212265 .0006020075195
75135 .0836957919969917 -.0166089498828493 -.00152102405818939 .0835114456012524
 -.0162854743454513 -.00351895357603659 .083340155149918 -.0126392259947643 -.01
409416212489556 .0823669673931261 -.001820350026972985 -.01877116315859475 .0815
975981990506 .0148433290971275 -.01164386165533982 .0800304102252081 .0188205979
6859155 992889162999833e-20 .0792097455025186 .01028529216346672 .01572632628964
1 .0776573893893507 -.00150496013091862 .0188298095808328 .0768461995983781 -.01
67373882459782 .0087727957913889 .0752678274535411 -.018829749973467 -.002770482
21457494 .0745102415705118 -.00726016348741349 -.01757883731557625 .072879132570
4918 .00427787492548353 -.0185046939756138 .0721393210043811 .0180591701647879 -
.00590300345750204 .0705245141476305 .01788204115827105 .00602613027724287 .0697
469706073816 .00455451099030091 .01829223333988275 .0681748336446052 -.007596844
16816663 .01717883786821885 .0673596576542908 -.0185293196708067 .00312156403183
3425 .0658197587725441 -.01652119116603365 -.00898113812538033 .0649966115201272
 -.001553767047144325 -.01873303341467275 .0634460234473278 .0103292748925496 -.
01575371289156705 .0626270032720695 .0188446977299021 .000147112775805893 .06106
72688761738 .01518227185874165 .01142913910368252 .0602939141290671 -.0019376817
9039067 .01889176771867805 .0586729308857137 -.0125732991101849 .014273977768064
64 .0579315980659606 -.0187059924427801 -.003490347143081955 .0563065139694879 -
.0129595913326495 -.01378264068996604 .0555455266170661 .00479956500411513 -.018
2828380420327 .0539553980009858 .01484175661908836 -.01150491648776416 .05315040
31952954 .017789147805324 .00603633328321768 .0516123085079152 .010361532485945
 .01575263196931405 .0507953328856394 -.00764366672496864 .0172230127053139 .049
2272859828625 -.0165695427489706 .00887586211354553 .0484110315982536 -.01651629
11614869 -.00898926846904744 .0468661894175623 -.00782145142649433 -.01727194429
14257 .0460754444798781 .01061369705332214 -.0156974171032504 .044469532643502 .
0178660498246674 -.00655697687058428 .0437202195006647 .0147662482365371 .012017
3361728255 .04209184510869495 .00493544020718083 .0183140855679917 .041343737081
49735 -.01286564635377636 .0138095616971094 .0397499894242271 -.0183912552338448
 .003499135316386795 .03897288566864905 -.0132222688700782 -.0132584495593047 .0
3745623698040485 -.002613816938888595 -.0186236074254625 .03665823401266675 .014
44858857822846 -.01227713137056804 .0350812043161075 .01884630662158945 -.000599
182928309966 .03425458099467225 .01066682653015572 .0155536588085524 .0326887673
404759 -.001294484299782348 .0189433472160598 .0318698049807048 -.01672053061597
265 .00881033458336589 .0302678661383074 -.01881405358186565 -.00278786511686712
 .0295051634948073 -.0072511567766094 -.01759077224130025 .02788089904737765 .00
4319527734273435 -.0185110752724156 .0271400733789884 .0177327593283979 -.006161
08309513411 .0255575335442399 .0179566417570526 .0048981130452119 .0248183013204
584 .00642714155886704 .01746453742594125 .0233422657704612 -.00491931712231601
 .01800852254751485 .02256952330269665 -.0182536962353487 .00562456238636052 .02
099582566446115 -.0175020916741743 -.00737660379073278 .0201439421852565 -.00274
3970707846065 -.0187911641793965 .0185293064062994 .01006513931456526 -.01620454
809923135 .01767522828224035 .0188514743951129 .0001167825049496092 .01606636362
201665 .0151429773246502 .01145607716260826 .01528684639682565 -.001967293010310
975 .01889333734992705 .01367355834111154 -.01259883215120342 .01426870440304478
 .01293351390699452 -.0186929812219765 -.003516809022866205 .01130166383602726 -
.0129823846637472 -.01373036874551454 .0105455915614636 .00471335947156269 -.018
3055645627511 .00896507488408728 .01485624196807446 -.0115299901077901 .00815525
388651789 .0177768294779733 .0060651280083034 .00660712576095253 .01034885488699
214 .01573611177660605 .00579139824709601 -.00760870730796073 .01723620002023175
 .004233159406075075 -.0165600363304853 .00893496202907261 .00341905394834375 -.
01652734921289235 -.00898684413560505 .001863480243101605 -.00775426617427755 -.
0172829686203582 .001066752566812842 .01064697955725722 -.01567638356760265 -.00
0530495397330249 .01787854424987 -.00655825672870664 -.00127640921270886 .014931
47391306162 .01097043424388496 -.00281924215039055 .00703389412402058 .016967913
2439031 -.00349489496021068 -.00888094174970012 .016067880810086 -.0048780864530
8784 -.0162198137902036 .00937389085538401 -.0055427540638256 -.0165321936493169
5 .000602034094715598 -.00630448629725246 127 5 239 2 2 2 2 2 127 40 240 4 2 2 2
 2 2 2 2 2 2 2 2 2 2 2 2 2 2 2 2 2 2 2 2 2 2 2 2 2 2 2 2 2 2 2 2 2 2 2 4 128 5 2
41 -.5 0 .5 1 1.5 128 40 242 0 .00562315547828539 .0320215293816271 .05841990328
49688 .08474582321909 .1110717431532112 .1374604650432436 .163849186933276 .1900
98253769695 .2163473206061135 .242640912675776 .2689345047454385 .29533927257386
9 .3217440404022995 .3480049304657315 .374265820529164 .400536005532294 .4268061
905354235 .453215297326943 .479624404118462 .505437202059231 .53125 .55796896484
9695 .58468792969939 .611091475404784 .637495021110179 .662497510555089 .6875 .7
15042251642617 .742584503285233 .768970827988786 .795357152692339 .8216867797410
93 .848016406789846 .874256346280886 .900496285771926 .926855248512295 .95321421
1252663 .976607105626332 1 141 237 144 104 104 57 141 102 123 102 102 95 82 1 92
 -542506664 50 18 219 0 79 21 6 0 +0 -.00994558455157172 .0997712267843927 0 -.7
48584881040482 .66303897010478 0 -.66303897010478 -.748584881040482 82 1 83 -464
387752 15 32 144 0 66 31 0 141 61 7 61 61 21 141 58 155 243 243 40 126 59 TF3 3
 6 16 2 6 5 8 FTF2 3 244 245 246 247 248 125 60 0 1 0 1.055928303256724 0 1 0 1.
055928303256724 2 PPBBPPBB????0 0 0 0 45 288 244 -.02125582620738505 -2095545958
979985e-30 .001822429248405505 -.0212558262024821 -.002861482276033205 .00182242
924883812 -.02070572099940005 -.00549303625266456 .00165369849092015 -.019323442
5918553 -.00909598899803796 .001130763758956172 -.0187280496633961 -.01029830285
03728 .000880766115268685 -.01737607697071875 -.01252175582759946 .0002311702694
5745 -.01661917432717815 -.01354195427105724 -.00018277796558672 -.0142003022943
1738 -.01629451463191675 -.00171975753097916 -.01256686886706476 -.0175381030273
499 -.003152566250700065 -.0105683839262863 -.0187556869047901 -.005543057739799
94 -.0099935003241463 -.01905086220699875 -.00637206310893139 -.0090437975514167
6 -.01949059222928865 -.00802667420247667 -.00866097172808815 -.0196420087536009
 -.00885537771495556 -.00819706490589441 -.01981249127421975 -.01016383744684184
 -.00804092536183768 -.0198698697212005 -.01060427486923524 -.00789012492122188
 -.01992528697169195 -.0110296317513922 -.01653219364931695 -2095545958979985e-3
0 -.00633316607420364 -.0165321936430006 -.001964179777096425 -.0063331660740764
9 -.0161453999728113 -.00362761881637864 -.00644011467822156 -.01529731466383885
 -.00583808939048345 -.00676093433372072 -.01496218435421396 -.00648921735767676
 -.00689905421310521 -.01424909824161936 -.00766173127774543 -.00724159232072068
 -.01387053931404092 -.00815015304628581 -.00744630917512346 -.0128160314581279
 -.00935003682494141 -.00811630595774984 -.01212445020199632 -.00978627969030971
 -.00867179872629652 -.01135060568100414 -.0102574637483203 -.00959713147897651
 -.01109472888867094 -.0103840184827114 -.00994884451589604 -.0106522628179851 -
.01058888020123422 -.0107197125433504 -.0105305432612792 -.0106350398398706 -.01
091692322940192 -.01017002480298552 -.01076752605913276 -.01193378462969002 -.00
995524271073676 -.01084645567284956 -.01253962463284398 -.00982959385751486 -.01
089263003377666 -.01289403741993408 -.00874417379261462 -208166817117217e-29 -.0
01822429248405505 -.00874417378941879 -.001095601435248752 -.001822429247369945
 -.00853598817834095 -.002040788103983735 -.001861809770220995 -.008024994689759
87 -.003372680891632005 -.002055083688769385 -.00781468613688402 -.0037924056058
4944 -.002136048766956805 -.00732049273971863 -.0046050930153624 -.0023733386788
51535 -.00703070688585443 -.0049927486867384 -.00252161296522212 -.0061070933165
2596 -.00604375578011189 -.00310839380179381 -.00527018529793616 -.0067239513041
3254 -.003672672561632515 -.00397356033328852 -.00751392702118288 -.005223061956
1592 -.003528277281900635 -.00774806049437311 -.00583029618828773 -.002709265730
15309 -.00812727959903647 -.00725718513153013 -.002323212752667835 -.00828301312
249567 -.00805964563759238 -.00184612093912573 -.00845834157655417 -.00940528523
074166 -.001697459458149905 -.00851297173051754 -.00982463298398349 -.0015434520
1564146 -.00856956751355493 -.01025903573046652 -.01346780635068276 -20816681711
7217e-29 .00633316607420364 -.01346780634887278 -.001992903934189635 .0063331660
7551314 -.01309630920491764 -.00390620554026966 .00623200339892071 -.01205112261
778278 -.00663058049918652 .00583661440390751 -.01158055144607238 -.007601491098
54549 .0056437715614171 -.0104474714688117 -.00946511756521644 .0050994239113266
 -.00977934189899166 -.01038454991150826 .0047419182443154 -.00749136415271544 -
.01298823358709036 .003288154624975315 -.00571260396301744 -.01447577464116872 .
001846559913960735 -.003191338578564495 -.01601215017765465 -.001168988216981088
 -.002427048717382545 -.01641490421866045 -.00225351478131817 -.0011008004635786
7 -.0170289916270909 -.00456414679066095 -.000453641219483435 -.017289982036226
 -.00599810012314602 .000126838957968566 -.01750330679164115 -.00763533804789349
 .0002168578907489075 -.0175363857788684 -.00788928322037402 .000396016920651526
5 -.0176022244514702 -.00839463006192465 -.02125582620738505 -2095545958979985e-
30 .001822429248405505 -.0212558262024821 -.002861482276033205 .0018224292488381
2 -.02070572099940005 -.00549303625266456 .00165369849092015 -.0193234425918553
 -.00909598899803796 .001130763758956172 -.0187280496633961 -.0102983028503728 .
000880766115268685 -.01737607697071875 -.01252175582759946 .00023117026945745 -.
01661917432717815 -.01354195427105724 -.00018277796558672 -.01420030229431738 -.
01629451463191675 -.00171975753097916 -.01256686886706476 -.0175381030273499 -.0
03152566250700065 -.0105683839262863 -.0187556869047901 -.00554305773979994 -.00
99935003241463 -.01905086220699875 -.00637206310893139 -.00904379755141676 -.019
49059222928865 -.00802667420247667 -.00866097172808815 -.0196420087536009 -.0088
5537771495556 -.00819706490589441 -.01981249127421975 -.01016383744684184 -.0080
4092536183768 -.0198698697212005 -.01060427486923524 -.00789012492122188 -.01992
528697169195 -.0110296317513922 -.01653219364931695 -2095545958979985e-30 -.0063
3316607420364 -.0165321936430006 -.001964179777096425 -.00633316607407649 -.0161
453999728113 -.00362761881637864 -.00644011467822156 -.01529731466383885 -.00583
808939048345 -.00676093433372072 -.01496218435421396 -.00648921735767676 -.00689
905421310521 -.01424909824161936 -.00766173127774543 -.00724159232072068 -.01387
053931404092 -.00815015304628581 -.00744630917512346 -.0128160314581279 -.009350
03682494141 -.00811630595774984 -.01212445020199632 -.00978627969030971 -.008671
79872629652 -.01135060568100414 -.0102574637483203 -.00959713147897651 -.0110947
2888867094 -.0103840184827114 -.00994884451589604 -.0106522628179851 -.010588880
20123422 -.0107197125433504 -.0105305432612792 -.0106350398398706 -.010916923229
40192 -.01017002480298552 -.01076752605913276 -.01193378462969002 -.009955242710
73676 -.01084645567284956 -.01253962463284398 -.00982959385751486 -.010892630033
77666 -.01289403741993408 127 5 245 2 2 2 2 2 127 8 246 4 2 2 2 2 2 2 4 128 5 24
7 -.5 0 .5 1 1.5 128 8 248 0 .239747760561386 .367854911816585 .498312213512079
 .757955513883228 .883274678767529 1 1.055928303256724 141 243 37 58 58 40 141 3
9 34 39 39 37 134 41 0 0 0 0 0 0 +249 250 136 249 1 2 2 2 5 FFF1 251 252 253 135
 250 2 0 45 4 251 1.573260544228025 1.031648995218274 .573260544228027 1.0316489
95218274 127 2 252 2 2 128 2 253 0 1 19 17 237 0 1 0 9 5 0 S0 141 20 19 20 20 7
 134 22 0 0 0 0 0 0 +254 255 136 254 1 2 2 2 5 FFF1 256 257 258 135 255 2 0 45 4
 256 5.03317711590177 4.95442679207358 5.03317711590177 -1.328758515106008 127 2
 257 2 2 128 2 258 0 1 74 4 CI16 index_map_offset0 0 1 dCCZ20 15 10 0 0 194 259
 260 261 188 262 263 13 224 2 0 0 0 0 0 0 0 0 0 0 81 2 259 284 264 1 0 260 0 0 0
 265 81 2 260 287 266 1 259 261 0 0 0 267 81 2 261 288 268 1 260 262 0 0 269 0 8
1 1 262 298 270 1 261 263 0 0 271 81 2 263 310 272 1 262 13 0 0 0 273 81 2 13 31
3 274 1 263 2 0 0 0 0 80 2 274 275 276 9000 0 0 0 0 3 5 0 0 0 FFTFFFFFFFFFFFFF9
 1 79 16 276 BODY_RECIPE_200180 2 272 277 278 9000 0 0 0 0 3 5 0 0 0 FFTFFFFFFFF
FFFFF9 1 82 1 273 1 79 24 278 BODY_IN_LIGHTWEIGHT_PERM80 1 270 279 280 9000 1 1
 1 1 1 1 1 1 0 FFTFFFFFFFFFFFFF1 82 1 271 253802 79 10 280 BODY_MATCH80 2 268 28
1 282 9000 0 0 0 0 3 5 0 0 0 FFTFTTTFFTFFFFFF3 3 84 255 6 269 Spr179 21 282 SW
IMPLICITBODYNAME_ID80 2 266 283 284 9000 0 0 0 0 3 5 0 0 0 FFTFFFFFFFFFFFFF9 1 8
2 1 267 193 79 30 284 LAST_BODY_MODIFYING_FEATURE_ID80 2 264 285 286 9000 0 0 0
 0 3 5 0 0 0 FFTFFFFFFFFFFFFF9 1 82 1 265 103 79 19 286 ENT_TIME_STAMP_200180 2
 12 287 288 9000 0 0 0 0 3 5 0 0 0 FFTFFFFFFFFFFFFF9 1 82 1 14 101 79 12 288 ATO
M_ID_20011 0 
